<svg xmlns="http://www.w3.org/2000/svg" width="430" height="430" style="width:100%;height:100%;transform:translate3d(0,0,0);content-visibility:visible" viewBox="0 0 430 430"><defs><mask id="J" mask-type="alpha"><use xmlns:ns1="http://www.w3.org/1999/xlink" ns1:href="#a"/></mask><mask id="I" mask-type="alpha"><use xmlns:ns2="http://www.w3.org/1999/xlink" ns2:href="#b"/></mask><mask id="F" mask-type="alpha"><use xmlns:ns3="http://www.w3.org/1999/xlink" ns3:href="#c"/></mask><mask id="E" mask-type="alpha"><use xmlns:ns4="http://www.w3.org/1999/xlink" ns4:href="#d"/></mask><mask id="C" mask-type="alpha"><use xmlns:ns5="http://www.w3.org/1999/xlink" ns5:href="#e"/></mask><mask id="B" mask-type="alpha"><g filter="url(#f)"><path fill="#fff" d="M0 0h430v430H0z" opacity="0"/><use xmlns:ns6="http://www.w3.org/1999/xlink" ns6:href="#g"/></g></mask><mask id="z" mask-type="alpha"><use xmlns:ns7="http://www.w3.org/1999/xlink" ns7:href="#h"/></mask><mask id="y" mask-type="alpha"><use xmlns:ns8="http://www.w3.org/1999/xlink" ns8:href="#i"/></mask><mask id="v" mask-type="alpha"><use xmlns:ns9="http://www.w3.org/1999/xlink" ns9:href="#j"/></mask><mask id="u" mask-type="alpha"><g filter="url(#k)"><path fill="#fff" d="M0 0h430v430H0z" opacity="0"/><use xmlns:ns10="http://www.w3.org/1999/xlink" ns10:href="#l"/></g></mask><mask id="s" mask-type="alpha"><use xmlns:ns11="http://www.w3.org/1999/xlink" ns11:href="#m"/></mask><mask id="r" mask-type="alpha"><use xmlns:ns12="http://www.w3.org/1999/xlink" ns12:href="#n"/></mask><clipPath id="o"><path d="M0 0h430v430H0z"/></clipPath><clipPath id="H"><path d="M0 0h430v430H0z"/></clipPath><clipPath id="G"><path d="M0 0h430v430H0z"/></clipPath><clipPath id="D"><path d="M0 0h430v430H0z"/></clipPath><clipPath id="w"><path d="M0 0h430v430H0z"/></clipPath><clipPath id="A"><path d="M0 0h430v430H0z"/></clipPath><clipPath id="x"><path d="M0 0h430v430H0z"/></clipPath><clipPath id="p"><path d="M0 0h430v430H0z"/></clipPath><clipPath id="t"><path d="M0 0h430v430H0z"/></clipPath><clipPath id="q"><path d="M0 0h430v430H0z"/></clipPath><path id="a" style="display:none"/><path id="b" style="display:none"/><path id="c" style="display:none"/><path id="d" style="display:none"/><path id="g" class="primary" style="display:none"/><path id="i" class="primary" style="display:none"/><path id="l" class="primary" style="display:none"/><path id="n" class="primary" style="display:none"/><g id="e" style="display:none"><path/><path/></g><g id="h" style="display:none"><path/><path/></g><g id="j" style="display:none"><path/><path/></g><g id="m" style="display:none"><path/><path/></g><filter id="f" width="100%" height="100%" x="0%" y="0%" filterUnits="objectBoundingBox"><feComponentTransfer in="SourceGraphic"><feFuncA tableValues="1.0 0.0" type="table"/></feComponentTransfer></filter><filter id="k" width="100%" height="100%" x="0%" y="0%" filterUnits="objectBoundingBox"><feComponentTransfer in="SourceGraphic"><feFuncA tableValues="1.0 0.0" type="table"/></feComponentTransfer></filter></defs><g clip-path="url(#o)"><g clip-path="url(#p)" style="display:none"><g style="display:none"><path class="secondary"/><path class="secondary" style="mix-blend-mode:multiply"/></g><path fill="none" class="primary" style="display:none"/><g clip-path="url(#q)" mask="url(#r)" style="display:none"><g style="display:none"><path class="tertiary"/><path class="tertiary"/></g><g mask="url(#s)" style="mix-blend-mode:multiply;display:none"><path class="tertiary"/><path class="tertiary"/></g><g style="display:none"><path class="tertiary"/><path class="tertiary" style="mix-blend-mode:multiply"/></g><path fill="none" class="primary" style="display:none"/><path fill="none" class="primary" style="display:none"/></g><g clip-path="url(#t)" mask="url(#u)" style="display:none"><path class="secondary" style="display:none"/><g mask="url(#v)" style="mix-blend-mode:multiply;display:none"><path class="secondary"/></g><g style="display:none"><path class="secondary"/><path class="secondary" style="mix-blend-mode:multiply"/></g><path fill="none" class="primary" style="display:none"/><path fill="none" class="primary" style="display:none"/></g></g><g clip-path="url(#w)" style="display:none"><g style="display:none"><path class="secondary"/><path class="secondary" style="mix-blend-mode:multiply"/></g><g clip-path="url(#x)" mask="url(#y)" style="display:none"><g style="display:none"><path class="tertiary"/><path class="tertiary"/></g><g mask="url(#z)" style="mix-blend-mode:multiply;display:none"><path class="tertiary"/><path class="tertiary"/></g><g style="display:none"><path class="tertiary"/><path class="tertiary" style="mix-blend-mode:multiply"/></g><path fill="none" class="primary" style="display:none"/><path fill="none" class="primary" style="display:none"/></g><g clip-path="url(#A)" mask="url(#B)" style="display:none"><path class="secondary" style="display:none"/><g mask="url(#C)" style="mix-blend-mode:multiply;display:none"><path class="secondary"/></g><g style="display:none"><path class="secondary"/><path class="secondary" style="mix-blend-mode:multiply"/></g><path fill="none" class="primary" style="display:none"/><path fill="none" class="primary" style="display:none"/></g><path fill="none" class="primary" style="display:none"/></g><g clip-path="url(#D)" style="display:none"><path class="secondary" style="display:none"/><g mask="url(#E)" style="mix-blend-mode:multiply;display:none"><path class="secondary"/></g><path fill="none" class="primary" style="display:none"/><path class="secondary" style="display:none"/><g mask="url(#F)" style="mix-blend-mode:multiply;display:none"><path class="secondary"/></g><path fill="none" class="primary" style="display:none"/><path class="secondary" style="display:none"/><path class="secondary" style="mix-blend-mode:multiply;display:none"/><path class="secondary" style="display:none"/><path class="secondary" style="mix-blend-mode:multiply;display:none"/><path fill="none" class="primary" style="display:none"/><path fill="none" class="primary" style="display:none"/></g><g clip-path="url(#G)" style="display:block"><path fill="#2CA48D" d="M-147.482 168.781c-.432 2.299 1.817 4.187 4.006 3.362l58.477-22.03C-59.912 164.349-30.905 172.477 0 172.477c95.257 0 172.477-77.22 172.477-172.477S95.257-172.477 0-172.477-172.477-95.257-172.477 0c0 40.146 13.715 77.089 36.717 106.397l-11.722 62.384zm38.348-41.634 5.37-28.574-8.396-10.698C-131.163 63.662-142.477 33.194-142.477 0c0-78.688 63.789-142.477 142.477-142.477S142.477-78.688 142.477 0 78.688 142.477 0 142.477c-25.58 0-49.502-6.715-70.193-18.456l-12.227-6.938-26.714 10.064z" class="secondary" style="display:block" transform="translate(219.5 209.477)"/><g opacity=".4" style="mix-blend-mode:multiply;display:block"><path fill="#2CA48D" d="m149.307 333.498-12.227-6.938-26.714 10.064 5.369-28.574-8.395-10.698c-19.003-24.214-30.318-54.681-30.318-87.875C77.022 130.789 140.812 67 219.5 67V37c-95.257 0-172.478 77.22-172.478 172.477 0 40.146 13.716 77.089 36.718 106.397l-11.722 62.384c-.432 2.299 1.817 4.187 4.006 3.362l58.477-22.03c25.087 14.236 54.094 22.364 84.999 22.364v-30c-25.58 0-49.502-6.715-70.193-18.456z" class="secondary" opacity="1"/></g><path fill="#2CA48D" d="M-84.899-63.111c12.918-17.865 25.422-29.683 27.827-26.316 2.474 3.367 8.383 11.612 13.193 18.277a2566.615 2566.615 0 0 1 12.368 16.971c1.924 2.611-1.1 9.345-6.734 14.979-5.634 5.634-7.696 12.712-4.604 15.804l33.531 33.53 32.569 32.569c2.542 2.542 9.207.069 14.841-5.565 5.634-5.634 12.162-8.796 14.498-7.078 2.336 1.718 10.512 7.627 18.208 13.261 7.696 5.634 16.216 11.819 19.033 13.88s-9.276 14.292-27.003 27.347C45.101 97.603 8.89 86.403-17.907 59.606L-59.683 17.83C-86.48-8.967-97.817-45.246-84.899-63.111z" class="secondary" style="display:block" transform="translate(220.252 210)"/><g opacity=".4" style="mix-blend-mode:multiply;display:block"><path fill="#2CA48D" d="M262.378 243.622c2.352-.339 5.276-1.744 8.154-3.992-2.136.247-5.103 1.696-8.154 3.992zM163.18 120.573l.145.198c-3.999 4.375-8.461 9.878-12.973 16.118-12.918 17.865-1.58 54.144 25.217 80.941l41.776 41.776c23.861 23.861 55.187 35.355 74.28 28.37a252.524 252.524 0 0 1-8.545 6.572c-17.727 13.055-53.938 1.855-80.735-24.942l-41.776-41.776c-26.797-26.797-38.135-63.076-25.217-80.941 12.918-17.865 25.423-29.683 27.828-26.316z" class="secondary" opacity="1"/></g><path fill="none" stroke="#121330" stroke-linecap="round" stroke-width="7" d="M-147.482 168.781c-.432 2.299 1.817 4.187 4.006 3.362l58.477-22.03C-59.912 164.349-30.905 172.477 0 172.477c95.257 0 172.477-77.22 172.477-172.477S95.257-172.477 0-172.477-172.477-95.257-172.477 0c0 40.146 13.715 77.089 36.717 106.397l-11.722 62.384zm38.348-41.634 5.37-28.574-8.396-10.698C-131.163 63.662-142.477 33.194-142.477 0c0-78.688 63.789-142.477 142.477-142.477S142.477-78.688 142.477 0 78.688 142.477 0 142.477c-25.58 0-49.502-6.715-70.193-18.456l-12.227-6.938-26.714 10.064z" class="primary" style="display:block" transform="translate(219.5 209.477)"/><path fill="none" stroke="#121330" stroke-linecap="round" stroke-linejoin="round" stroke-width="7" d="M-84.899-63.111c12.918-17.865 25.422-29.683 27.827-26.316 2.474 3.367 8.383 11.612 13.193 18.277a2566.615 2566.615 0 0 1 12.368 16.971c1.924 2.611-1.1 9.345-6.734 14.979-5.634 5.634-7.696 12.712-4.604 15.804l33.531 33.53 32.569 32.569c2.542 2.542 9.207.069 14.841-5.565 5.634-5.634 12.162-8.796 14.498-7.078 2.336 1.718 10.512 7.627 18.208 13.261 7.696 5.634 16.216 11.819 19.033 13.88s-9.276 14.292-27.003 27.347C45.101 97.603 8.89 86.403-17.907 59.606L-59.683 17.83C-86.48-8.967-97.817-45.246-84.899-63.111z" class="primary" style="display:block" transform="translate(220.252 210)"/></g><g clip-path="url(#H)" style="display:none"><path class="secondary" style="display:none"/><path fill="none" class="primary" style="display:none"/><g mask="url(#I)" style="mix-blend-mode:multiply;display:none"><path class="secondary"/></g><path class="secondary" style="display:none"/><path fill="none" class="primary" style="display:none"/><g mask="url(#J)" style="mix-blend-mode:multiply;display:none"><path class="secondary"/></g></g></g></svg>